<svg width="80" height="40" viewBox="0 0 80 40" fill="none" xmlns="http://www.w3.org/2000/svg">
<path d="M73.9349 12.9002C73.9349 11.3725 75.2924 10.1344 76.9675 10.1344C78.6425 10.1344 80 11.3728 80 12.9002V26.4101C80 27.9378 78.6425 29.1759 76.9675 29.1759C75.2924 29.1759 73.9349 27.9375 73.9349 26.4101V12.9002Z" fill="#7046E7"/>
<path fill-rule="evenodd" clip-rule="evenodd" d="M17.5416 15.3116C15.9217 11.8161 10.8598 9.36762 7.28695 10.3521L5.66443 10.7995V2.79419C5.66443 1.25087 4.39647 0 2.83236 0C1.26825 0 0 1.25087 0 2.79419V26.3363C0 27.8793 1.26796 29.1302 2.83236 29.1302C4.39677 29.1302 5.66443 27.8793 5.66443 26.3363V23.6759C5.66443 18.4642 5.71169 18.1738 6.73427 17.1543C8.25494 15.6364 10.2077 15.7285 11.7644 17.3911C12.885 18.5881 13.2243 18.6956 15.8903 18.6956C19.1268 18.6956 19.1183 18.7132 17.5416 15.3116Z" fill="#7046E7"/>
<path d="M34.9396 12.9002C34.9396 11.3725 36.2971 10.1344 37.9721 10.1344C39.6472 10.1344 41.0047 11.3728 41.0047 12.9002V26.3522C41.0047 27.8799 39.6472 29.118 37.9721 29.118C36.2971 29.118 34.9396 27.8796 34.9396 26.3522V12.9002Z" fill="#7046E7"/>
<path d="M31.7947 36.9742C31.8076 38.6414 30.4407 40 28.7504 40C27.0601 40 25.7064 38.6556 25.7064 36.9973L25.7049 28.4784H22.2565C19.118 28.4784 18.6387 28.3597 16.9237 27.1557C14.9144 25.7456 13.0899 23.0218 13.0782 21.413C13.0717 20.5047 13.3382 20.4349 15.7289 20.4349C18.1195 20.4349 18.5087 20.5658 19.607 21.7391C21.1635 23.4017 23.1165 23.4937 24.6371 21.9762C25.2702 21.3447 25.5297 20.9845 25.6354 19.6152V12.921C25.6354 11.3933 26.9823 10.1549 28.6438 10.1549C30.3054 10.1549 31.6523 11.3933 31.6523 12.921V19.0975L31.7947 36.9742Z" fill="#7046E7"/>
<path d="M50.3074 26.1322C50.3074 27.7873 48.9474 29.129 47.2696 29.129C45.5919 29.129 44.2318 27.7873 44.2318 26.1322C44.2318 24.477 45.5919 23.1353 47.2696 23.1353C48.9474 23.1353 50.3074 24.477 50.3074 26.1322Z" fill="#7046E7"/>
<path d="M62.0185 29.129C60.7401 29.129 59.5204 28.8844 58.3594 28.3951C57.1984 27.9058 56.1809 27.2299 55.3069 26.3672C54.4198 25.4917 53.7285 24.4874 53.2328 23.3543C52.7501 22.2084 52.5088 20.9981 52.5088 19.7234C52.5088 18.4487 52.7566 17.2384 53.2523 16.0925C53.748 14.9337 54.4329 13.9165 55.3069 13.0409C56.1809 12.1783 57.1984 11.5023 58.3594 11.013C59.5204 10.5238 60.7401 10.2791 62.0185 10.2791C63.3099 10.2791 64.5296 10.5238 65.6775 11.013C66.8385 11.4894 67.8625 12.1654 68.7496 13.0409C69.6236 13.9165 70.3019 14.9272 70.7846 16.0732C71.2803 17.2191 71.5282 18.4358 71.5282 19.7234V26.8887C71.5282 27.4938 71.3129 28.0088 70.8824 28.4337C70.465 28.8715 69.9432 29.0904 69.3171 29.0904C68.8083 29.0904 68.3713 28.9552 68.006 28.6848C67.6408 28.4016 67.3929 28.0282 67.2625 27.5646C65.671 28.6076 63.923 29.129 62.0185 29.129ZM62.0185 24.8414C62.7229 24.8414 63.3882 24.7127 64.0143 24.4552C64.6535 24.1848 65.2144 23.8114 65.6971 23.335C66.1667 22.8586 66.532 22.3114 66.7929 21.6934C67.0538 21.0753 67.1842 20.4187 67.1842 19.7234C67.1842 19.0281 67.0538 18.3715 66.7929 17.7534C66.532 17.1354 66.1667 16.5882 65.6971 16.1118C65.2275 15.6483 64.6731 15.2877 64.0339 15.0302C63.3947 14.7598 62.7229 14.6246 62.0185 14.6246C61.3271 14.6246 60.6683 14.7534 60.0422 15.0109C59.416 15.2684 58.8616 15.6354 58.3789 16.1118C57.8963 16.5882 57.5245 17.1354 57.2636 17.7534C57.0027 18.3715 56.8723 19.0281 56.8723 19.7234C56.8723 20.4187 57.0027 21.0753 57.2636 21.6934C57.5245 22.3114 57.8963 22.8586 58.3789 23.335C58.8486 23.8114 59.3964 24.1848 60.0226 24.4552C60.6488 24.7127 61.314 24.8414 62.0185 24.8414Z" fill="#7046E7"/>
</svg>
